<svg xmlns="http://www.w3.org/2000/svg" width="100%" height="100%" preserveAspectRatio="none" viewBox="0 0 192.5 192.64" fill="rgba(91, 175, 235, 1)"><path d="M.06,94C0,94.75,0,95.53,0,96.32c0,.47,0,.94,0,1.41a1.85,1.85,0,0,0,1.14-.52,1.91,1.91,0,0,0,0-2.72A1.82,1.82,0,0,0,.06,94Z"></path><path d="M28.43,56.33A1.88,1.88,0,0,0,29,55a1.92,1.92,0,0,0-.57-1.36,1.93,1.93,0,0,0-2.72,0,1.92,1.92,0,0,0,2.72,2.72Z"></path><path d="M12.08,67.23a1.93,1.93,0,1,0,2.73,0A1.94,1.94,0,0,0,12.08,67.23Z"></path><path d="M25.71,67.23a1.93,1.93,0,1,0,2.72,0A1.93,1.93,0,0,0,25.71,67.23Z"></path><path d="M12.08,53.61a1.93,1.93,0,1,0,2.73,0A1.94,1.94,0,0,0,12.08,53.61Z"></path><path d="M12.08,80.86a1.93,1.93,0,1,0,2.73,0A1.94,1.94,0,0,0,12.08,80.86Z"></path><path d="M39.33,70a1.87,1.87,0,0,0,.64.42A1.94,1.94,0,0,0,42.06,70a1.87,1.87,0,0,0,.42-.64,1.95,1.95,0,0,0,0-1.45,1.74,1.74,0,0,0-.42-.63,2.06,2.06,0,0,0-.64-.43A1.93,1.93,0,0,0,39.33,70Z"></path><path d="M1.75,82.22a1.92,1.92,0,0,0-.51-1.28C1.11,81.73,1,82.51.9,83.3c0,.17,0,.34-.07.52a2.12,2.12,0,0,0,.35-.23A1.92,1.92,0,0,0,1.75,82.22Z"></path><path d="M55.68,29.08a1.92,1.92,0,0,0-2.08-3.14,1.78,1.78,0,0,0-.64.42,1.92,1.92,0,0,0,2.72,2.72Z"></path><path d="M28.43,29.08a1.91,1.91,0,0,0,.43-.63,2.05,2.05,0,0,0,.1-.95c-.71.69-1.4,1.4-2.08,2.11A1.86,1.86,0,0,0,28.43,29.08Z"></path><path d="M39.33,40a1.93,1.93,0,1,0,2.73,0A1.94,1.94,0,0,0,39.33,40Z"></path><path d="M53,40a1.93,1.93,0,1,0,2.72,0A1.94,1.94,0,0,0,53,40Z"></path><path d="M39.33,26.36a1.93,1.93,0,1,0,2.73,0A1.94,1.94,0,0,0,39.33,26.36Z"></path><path d="M39.33,53.61a1.93,1.93,0,1,0,2.73,0A1.94,1.94,0,0,0,39.33,53.61Z"></path><path d="M25.71,40a1.93,1.93,0,1,0,2.72,0A1.93,1.93,0,0,0,25.71,40Z"></path><path d="M53,56.33a2,2,0,0,0,.64.43,1.92,1.92,0,0,0,2.08-3.15,1.74,1.74,0,0,0-.63-.42A1.92,1.92,0,0,0,53,56.33Z"></path><path d="M82.93,1.83a1.91,1.91,0,0,0,.43-.63c0-.1,0-.21.06-.31-.43,0-.85.09-1.27.16-.75.11-1.48.24-2.22.37a2.29,2.29,0,0,0,.28.41A1.91,1.91,0,0,0,82.93,1.83Z"></path><path d="M66.58,12.73a1.93,1.93,0,1,0,2.73,0A1.94,1.94,0,0,0,66.58,12.73Z"></path><path d="M80.21,12.73a1.93,1.93,0,1,0,2.72,0A1.94,1.94,0,0,0,80.21,12.73Z"></path><path d="M66.58,26.36a1.93,1.93,0,1,0,2.73,0A1.94,1.94,0,0,0,66.58,26.36Z"></path><path d="M53,12.73a1.93,1.93,0,1,0,2.72,0A1.94,1.94,0,0,0,53,12.73Z"></path><path d="M68,39.42a1.91,1.91,0,1,0,1.36.56h0A2,2,0,0,0,68,39.42Z"></path><path d="M96.56,1.83A1.91,1.91,0,0,0,97,0l-.72,0c-1,0-2,.05-3,.08a1.9,1.9,0,0,0,.48,1.75A1.92,1.92,0,0,0,96.56,1.83Z"></path><path d="M12.72,97.63a1.95,1.95,0,0,0,1.45,0,1.87,1.87,0,0,0,.64-.42h0a1.94,1.94,0,0,0,.42-2.09,1.88,1.88,0,0,0-.42-.63h0a1.92,1.92,0,0,0-1.37-.57,2,2,0,0,0-.72.14,2.06,2.06,0,0,0-.64.43,1.74,1.74,0,0,0-.42.63,1.94,1.94,0,0,0,.42,2.09A1.87,1.87,0,0,0,12.72,97.63Z"></path><path d="M28.43,110.83a1.88,1.88,0,0,0,.57-1.36,1.93,1.93,0,0,0-3.29-1.36h0a2.06,2.06,0,0,0-.43.64,1.93,1.93,0,0,0,3.15,2.08Z"></path><path d="M1.18,108.11a1.92,1.92,0,0,0-.48-.32l.09.71c.1.8.19,1.6.31,2.39l.08,0a1.93,1.93,0,0,0,.43-2.09A2,2,0,0,0,1.18,108.11Z"></path><path d="M12.08,121.73a1.93,1.93,0,1,0,2.73,0A1.94,1.94,0,0,0,12.08,121.73Z"></path><path d="M25.71,121.73a1.93,1.93,0,1,0,2.72,0A1.92,1.92,0,0,0,25.71,121.73Z"></path><path d="M12.08,108.11a1.93,1.93,0,1,0,2.73,0A1.94,1.94,0,0,0,12.08,108.11Z"></path><path d="M12.08,135.36a1.93,1.93,0,1,0,2.73,0A1.94,1.94,0,0,0,12.08,135.36Z"></path><path d="M55.05,84a2,2,0,0,0,.63-.43,1.92,1.92,0,0,0-2.09-3.14,1.83,1.83,0,0,0-.63.42A1.93,1.93,0,0,0,55.05,84Z"></path><path d="M28.43,83.59a1.91,1.91,0,0,0,0-2.73,1.74,1.74,0,0,0-.63-.42,1.92,1.92,0,1,0,.63,3.15Z"></path><path d="M39.33,94.48a1.93,1.93,0,1,0,2.73,0A1.94,1.94,0,0,0,39.33,94.48Z"></path><path d="M53,94.48a1.93,1.93,0,1,0,2.72,0A1.93,1.93,0,0,0,53,94.48Z"></path><path d="M39.33,80.86a1.93,1.93,0,1,0,2.73,0A1.94,1.94,0,0,0,39.33,80.86Z"></path><path d="M39.33,108.11a1.93,1.93,0,1,0,2.73,0A1.94,1.94,0,0,0,39.33,108.11Z"></path><path d="M25.71,94.48a1.93,1.93,0,1,0,2.72,0A1.92,1.92,0,0,0,25.71,94.48Z"></path><path d="M55.05,107.69a1.92,1.92,0,1,0,.63.42A1.74,1.74,0,0,0,55.05,107.69Z"></path><path d="M82.93,56.33a1.92,1.92,0,0,0-2.08-3.14,1.78,1.78,0,0,0-.64.42,1.92,1.92,0,1,0,2.72,2.72Z"></path><path d="M66.58,67.23a1.93,1.93,0,1,0,2.73,0A1.94,1.94,0,0,0,66.58,67.23Z"></path><path d="M80.21,67.23a1.93,1.93,0,1,0,2.72,0A1.93,1.93,0,0,0,80.21,67.23Z"></path><path d="M66.58,53.61a1.93,1.93,0,1,0,2.73,0A1.93,1.93,0,0,0,66.58,53.61Z"></path><path d="M66.58,80.86a1.93,1.93,0,1,0,2.73,0A1.94,1.94,0,0,0,66.58,80.86Z"></path><path d="M53,67.23a1.93,1.93,0,1,0,2.72,0A1.93,1.93,0,0,0,53,67.23Z"></path><path d="M82.3,80.43a1.93,1.93,0,0,0-2.09,3.15,1.92,1.92,0,1,0,2.09-3.15Z"></path><path d="M95.92,15.88A1.88,1.88,0,0,0,97,14.82a1.81,1.81,0,0,0,.14-.72,1.92,1.92,0,0,0-2.65-1.79,2,2,0,0,0-.64.42h0a1.93,1.93,0,0,0,2.09,3.15Z"></path><path d="M110.18,29.08a1.92,1.92,0,1,0-2.72-2.72,1.92,1.92,0,1,0,2.72,2.72Z"></path><path d="M82.93,29.08a1.94,1.94,0,0,0-.63-3.15,1.93,1.93,0,0,0-2.09,3.15A1.91,1.91,0,0,0,82.93,29.08Z"></path><path d="M93.83,40a1.93,1.93,0,1,0,2.73,0A1.94,1.94,0,0,0,93.83,40Z"></path><path d="M107.46,40a1.93,1.93,0,1,0,2.72,0A1.94,1.94,0,0,0,107.46,40Z"></path><path d="M93.83,26.36a1.93,1.93,0,1,0,2.73,0A1.93,1.93,0,0,0,93.83,26.36Z"></path><path d="M93.83,53.61a1.93,1.93,0,1,0,2.73,0A1.93,1.93,0,0,0,93.83,53.61Z"></path><path d="M80.21,40a1.93,1.93,0,1,0,2.72,0A1.93,1.93,0,0,0,80.21,40Z"></path><path d="M93.83,67.23a1.94,1.94,0,0,0,0,2.73h0a1.93,1.93,0,0,0,2.73-2.73h0A1.94,1.94,0,0,0,93.83,67.23Z"></path><path d="M108.82,2.4a2,2,0,0,0,.73-.14,1.91,1.91,0,0,0,.63-.43,1.78,1.78,0,0,0,.45-.77c-.7-.1-1.42-.18-2.13-.27l-1.58-.2a1.87,1.87,0,0,0,.54,1.24A1.92,1.92,0,0,0,108.82,2.4Z"></path><path d="M121.08,12.73a1.93,1.93,0,1,0,2.73,0A1.94,1.94,0,0,0,121.08,12.73Z"></path><path d="M134.71,12.73a1.93,1.93,0,1,0,2.72,0A1.94,1.94,0,0,0,134.71,12.73Z"></path><path d="M121.08,26.36a1.93,1.93,0,1,0,2.73,0A1.93,1.93,0,0,0,121.08,26.36Z"></path><path d="M107.46,12.73a1.93,1.93,0,1,0,2.72,0A1.94,1.94,0,0,0,107.46,12.73Z"></path><path d="M40,124.88a1.94,1.94,0,0,0,2.09-.42,2,2,0,0,0,.42-.64,1.93,1.93,0,0,0-.42-2.08h0a1.93,1.93,0,0,0-2.09-.43,2.06,2.06,0,0,0-.64.43,1.93,1.93,0,0,0,0,2.72A1.87,1.87,0,0,0,40,124.88Z"></path><path d="M55.68,138.08a1.74,1.74,0,0,0,.42-.63,1.92,1.92,0,0,0-2.51-2.51,1.74,1.74,0,0,0-.63.42,1.92,1.92,0,1,0,2.72,2.72Z"></path><path d="M28.43,138.09a1.91,1.91,0,0,0,0-2.73,1.83,1.83,0,0,0-.63-.42,1.92,1.92,0,0,0-2.09,3.14h0A1.92,1.92,0,0,0,28.43,138.09Z"></path><path d="M39.33,149a1.93,1.93,0,1,0,2.73,0A1.94,1.94,0,0,0,39.33,149Z"></path><path d="M53,149a1.93,1.93,0,1,0,2.72,0A1.92,1.92,0,0,0,53,149Z"></path><path d="M39.33,135.36a1.93,1.93,0,1,0,2.73,0A1.94,1.94,0,0,0,39.33,135.36Z"></path><path d="M39.33,162.61a1.93,1.93,0,1,0,2.73,0A1.94,1.94,0,0,0,39.33,162.61Z"></path><path d="M25.71,149a1.93,1.93,0,1,0,2.72,0A1.92,1.92,0,0,0,25.71,149Z"></path><path d="M27.07,162.05a1.9,1.9,0,0,0-.89.25c.83.88,1.67,1.75,2.54,2.61A2,2,0,0,0,29,164a1.93,1.93,0,0,0-1.93-1.92Z"></path><path d="M67.22,97.63a1.94,1.94,0,0,0,2.09-.42h0a1.94,1.94,0,0,0,.42-2.09,2,2,0,0,0-.42-.64,2.22,2.22,0,0,0-.64-.42,1.93,1.93,0,0,0-2.09,3.15A1.87,1.87,0,0,0,67.22,97.63Z"></path><path d="M82.93,110.83a1.74,1.74,0,0,0,.42-.63,1.9,1.9,0,0,0-.42-2.09,1.93,1.93,0,0,0-2.72,0h0a2,2,0,0,0-.43.64,1.93,1.93,0,0,0,3.15,2.08Z"></path><path d="M66.58,121.73a1.93,1.93,0,1,0,2.73,0A1.94,1.94,0,0,0,66.58,121.73Z"></path><path d="M80.21,121.73a1.93,1.93,0,1,0,2.72,0A1.92,1.92,0,0,0,80.21,121.73Z"></path><path d="M66.58,108.11a1.93,1.93,0,1,0,2.73,0A1.93,1.93,0,0,0,66.58,108.11Z"></path><path d="M66.58,135.36a1.93,1.93,0,1,0,2.73,0A1.94,1.94,0,0,0,66.58,135.36Z"></path><path d="M53,121.73a1.93,1.93,0,1,0,2.72,0A1.92,1.92,0,0,0,53,121.73Z"></path><path d="M108.82,84.15a1.93,1.93,0,0,0,1.36-3.29,1.92,1.92,0,0,0-2.09-.42,1.83,1.83,0,0,0-.63.42,1.93,1.93,0,0,0,0,2.72A1.9,1.9,0,0,0,108.82,84.15Z"></path><path d="M93.83,94.48a1.93,1.93,0,1,0,2.73,0A1.94,1.94,0,0,0,93.83,94.48Z"></path><path d="M107.46,94.48a1.93,1.93,0,1,0,2.72,0A1.93,1.93,0,0,0,107.46,94.48Z"></path><path d="M93.83,80.86a1.93,1.93,0,1,0,2.73,0A1.93,1.93,0,0,0,93.83,80.86Z"></path><path d="M93.83,108.11a1.93,1.93,0,1,0,2.73,0A1.93,1.93,0,0,0,93.83,108.11Z"></path><path d="M80.21,94.48a1.93,1.93,0,1,0,2.72,0A1.92,1.92,0,0,0,80.21,94.48Z"></path><path d="M123.81,42.71h0a1.87,1.87,0,0,0,.42-.64,1.92,1.92,0,0,0-2.51-2.51,2,2,0,0,0-.64.42,1.94,1.94,0,0,0,0,2.73h0A1.94,1.94,0,0,0,123.81,42.71Z"></path><path d="M137.43,56.33a1.91,1.91,0,0,0,0-2.72,1.93,1.93,0,0,0-2.72,0h0a1.92,1.92,0,1,0,2.72,2.72Z"></path><path d="M110.18,56.33a1.92,1.92,0,1,0-2.72,0A1.91,1.91,0,0,0,110.18,56.33Z"></path><path d="M121.08,67.23a1.93,1.93,0,1,0,2.73,0A1.94,1.94,0,0,0,121.08,67.23Z"></path><path d="M134.71,67.23a1.93,1.93,0,1,0,2.72,0A1.93,1.93,0,0,0,134.71,67.23Z"></path><path d="M121.08,53.61a1.93,1.93,0,1,0,2.73,0A1.93,1.93,0,0,0,121.08,53.61Z"></path><path d="M121.08,80.86a1.93,1.93,0,1,0,2.73,0A1.93,1.93,0,0,0,121.08,80.86Z"></path><path d="M107.46,67.23a1.93,1.93,0,1,0,2.72,0A1.93,1.93,0,0,0,107.46,67.23Z"></path><path d="M149,15.88a1.71,1.71,0,0,0,.45.09l-1-.63-.33-.2a2.92,2.92,0,0,0,.21.32A1.87,1.87,0,0,0,149,15.88Z"></path><path d="M164.68,29.08a1.67,1.67,0,0,0,.24-.35c-.87-.88-1.76-1.73-2.65-2.58a1.69,1.69,0,0,0-.31.21,1.92,1.92,0,1,0,2.72,2.72Z"></path><path d="M135.35,29.51a1.94,1.94,0,1,0-.64-.43h0A2,2,0,0,0,135.35,29.51Z"></path><path d="M148.33,40a1.93,1.93,0,1,0,2.73,0A1.94,1.94,0,0,0,148.33,40Z"></path><path d="M162,40a1.93,1.93,0,1,0,2.72,0A1.94,1.94,0,0,0,162,40Z"></path><path d="M148.33,26.36a1.93,1.93,0,1,0,2.73,0A1.93,1.93,0,0,0,148.33,26.36Z"></path><path d="M148.33,53.61a1.93,1.93,0,1,0,2.73,0A1.93,1.93,0,0,0,148.33,53.61Z"></path><path d="M134.71,40a1.93,1.93,0,1,0,2.72,0A1.93,1.93,0,0,0,134.71,40Z"></path><path d="M162,56.33a2,2,0,0,0,.64.43,1.91,1.91,0,0,0,2.08-.43,2,2,0,0,0,.43-.63A1.93,1.93,0,0,0,162,53.61a1.83,1.83,0,0,0-.42.63,1.9,1.9,0,0,0,.42,2.09Z"></path><path d="M67.22,152.13a1.94,1.94,0,0,0,2.09-.42,2,2,0,0,0,.42-.64,2,2,0,0,0,.14-.72,1.93,1.93,0,1,0-3.29,1.36A1.87,1.87,0,0,0,67.22,152.13Z"></path><path d="M82.93,165.33a1.74,1.74,0,0,0,.42-.63,1.92,1.92,0,0,0-2.51-2.51,1.74,1.74,0,0,0-.63.42,1.92,1.92,0,1,0,2.72,2.72Z"></path><path d="M53.59,165.76a1.92,1.92,0,0,0,2.09-.43,1.74,1.74,0,0,0,.42-.63,1.9,1.9,0,0,0-.42-2.09,1.78,1.78,0,0,0-.64-.42,1.93,1.93,0,0,0-1.45,3.57Z"></path><path d="M66.58,176.23a1.93,1.93,0,1,0,2.73,0A1.94,1.94,0,0,0,66.58,176.23Z"></path><path d="M80.21,176.23a1.93,1.93,0,1,0,2.72,0A1.92,1.92,0,0,0,80.21,176.23Z"></path><path d="M66.58,162.61a1.93,1.93,0,1,0,2.73,0A1.93,1.93,0,0,0,66.58,162.61Z"></path><path d="M53,176.23a1.93,1.93,0,1,0,2.72,0A1.92,1.92,0,0,0,53,176.23Z"></path><path d="M82.29,189.43a1.93,1.93,0,0,0-2.08.43,1.86,1.86,0,0,0-.56,1.31c.56.1,1.11.21,1.67.3s1.38.18,2.07.28a1.9,1.9,0,0,0-.46-1.89A2,2,0,0,0,82.29,189.43Z"></path><path d="M94.47,124.88a1.94,1.94,0,0,0,2.09-.42,2,2,0,0,0,.42-.64,1.93,1.93,0,1,0-3.57,0,1.88,1.88,0,0,0,1.06,1.06Z"></path><path d="M110.18,138.08a1.74,1.74,0,0,0,.42-.63,1.92,1.92,0,0,0-2.51-2.51,1.74,1.74,0,0,0-.63.42,1.92,1.92,0,1,0,2.72,2.72Z"></path><path d="M82.93,138.08a1.91,1.91,0,0,0,.43-2.08,2,2,0,0,0-.43-.64,2,2,0,0,0-.63-.43,1.94,1.94,0,0,0-2.09.43,1.92,1.92,0,1,0,2.72,2.72Z"></path><path d="M93.83,149a1.93,1.93,0,1,0,2.73,0A1.94,1.94,0,0,0,93.83,149Z"></path><path d="M107.46,149a1.93,1.93,0,1,0,2.72,0A1.92,1.92,0,0,0,107.46,149Z"></path><path d="M93.83,135.36a1.93,1.93,0,1,0,2.73,0A1.93,1.93,0,0,0,93.83,135.36Z"></path><path d="M93.83,162.61a1.93,1.93,0,1,0,2.73,0A1.93,1.93,0,0,0,93.83,162.61Z"></path><path d="M80.21,149a1.93,1.93,0,1,0,2.72,0A1.92,1.92,0,0,0,80.21,149Z"></path><path d="M95.19,175.67a1.91,1.91,0,1,0,1.37.56h0A2,2,0,0,0,95.19,175.67Z"></path><path d="M121.72,97.63a1.94,1.94,0,0,0,2.09-.42h0a1.94,1.94,0,0,0,.42-2.09,2,2,0,0,0-.42-.64,2,2,0,0,0-1.37-.56,2,2,0,0,0-.72.14,2,2,0,0,0-.64.42h0a1.94,1.94,0,0,0-.42,2.09,1.88,1.88,0,0,0,1.06,1.06Z"></path><path d="M137.43,110.83a1.91,1.91,0,0,0,0-2.72,1.93,1.93,0,0,0-2.72,0,2,2,0,0,0-.43.64,1.93,1.93,0,0,0,3.15,2.08Z"></path><path d="M108.82,111.4a2.06,2.06,0,0,0,.73-.14,2,2,0,0,0,.63-.43,1.91,1.91,0,1,0-1.36.57Z"></path><path d="M121.08,121.73a1.93,1.93,0,1,0,2.73,0A1.94,1.94,0,0,0,121.08,121.73Z"></path><path d="M134.71,121.73a1.93,1.93,0,1,0,2.72,0A1.92,1.92,0,0,0,134.71,121.73Z"></path><path d="M121.08,108.11a1.93,1.93,0,1,0,2.73,0A1.93,1.93,0,0,0,121.08,108.11Z"></path><path d="M121.08,135.36a1.93,1.93,0,1,0,2.73,0A1.93,1.93,0,0,0,121.08,135.36Z"></path><path d="M107.46,121.73a1.93,1.93,0,1,0,2.72,0A1.92,1.92,0,0,0,107.46,121.73Z"></path><path d="M150.42,70.38a1.87,1.87,0,0,0,.64-.42,2,2,0,0,0,.56-1.36,2,2,0,0,0-.14-.73,1.87,1.87,0,0,0-.42-.64,2,2,0,0,0-1.36-.56,1.94,1.94,0,0,0-1.37.56,1.93,1.93,0,0,0,2.09,3.15Z"></path><path d="M164.05,84a2,2,0,0,0,.63-.43,1.89,1.89,0,1,0-.63.43Z"></path><path d="M136.8,84a2,2,0,0,0,.63-.43,1.89,1.89,0,1,0-.63.43Z"></path><path d="M148.33,94.48a1.93,1.93,0,1,0,2.73,0A1.94,1.94,0,0,0,148.33,94.48Z"></path><path d="M162,94.48a1.93,1.93,0,1,0,2.72,0A1.93,1.93,0,0,0,162,94.48Z"></path><path d="M148.33,80.86a1.93,1.93,0,1,0,2.73,0A1.93,1.93,0,0,0,148.33,80.86Z"></path><path d="M148.33,108.11a1.93,1.93,0,1,0,2.73,0A1.93,1.93,0,0,0,148.33,108.11Z"></path><path d="M134.71,94.48a1.93,1.93,0,1,0,2.72,0A1.92,1.92,0,0,0,134.71,94.48Z"></path><path d="M175.58,97.21a2,2,0,0,0,.64.42,1.92,1.92,0,0,0,2.65-1.78,1.94,1.94,0,0,0-.56-1.37,1.94,1.94,0,0,0-2.73,0h0a1.94,1.94,0,0,0,0,2.73Z"></path><path d="M176.22,43.13a2.24,2.24,0,0,0,.45.09l-.63-1-.94-1.31a1.89,1.89,0,0,0,.48,1.77A2,2,0,0,0,176.22,43.13Z"></path><path d="M175.58,67.23a1.93,1.93,0,1,0,2.73,0A1.94,1.94,0,0,0,175.58,67.23Z"></path><path d="M175.58,53.61a1.93,1.93,0,1,0,2.73,0A1.93,1.93,0,0,0,175.58,53.61Z"></path><path d="M175.58,80.86a1.93,1.93,0,1,0,2.73,0A1.93,1.93,0,0,0,175.58,80.86Z"></path><path d="M162,67.23a1.93,1.93,0,1,0,2.72,0A1.93,1.93,0,0,0,162,67.23Z"></path><path d="M189.21,83.58a1.9,1.9,0,0,0,2.57.1c-.1-.79-.19-1.58-.31-2.36-.05-.29-.11-.58-.16-.88h0a1.93,1.93,0,0,0-2.09,3.15Z"></path><path d="M93.83,189.86a1.92,1.92,0,0,0,0,2.71c.83,0,1.66.07,2.5.07h.16l.08,0a1.93,1.93,0,0,0-2.73-2.72Z"></path><path d="M123.17,152.13a1.87,1.87,0,0,0,.64-.42,2,2,0,0,0,.42-.64,2,2,0,0,0,.14-.72,1.92,1.92,0,0,0-2.65-1.79,2,2,0,0,0-.64.42h0a1.93,1.93,0,0,0,2.09,3.15Z"></path><path d="M137.43,165.33a1.92,1.92,0,1,0-2.72,0A1.9,1.9,0,0,0,137.43,165.33Z"></path><path d="M110.18,165.33a1.74,1.74,0,0,0,.42-.63,1.9,1.9,0,0,0-.42-2.09,2,2,0,0,0-.64-.43,1.93,1.93,0,1,0,.64,3.15Z"></path><path d="M121.08,176.23a1.93,1.93,0,1,0,2.73,0A1.94,1.94,0,0,0,121.08,176.23Z"></path><path d="M134.71,176.23a1.93,1.93,0,1,0,2.72,0A1.92,1.92,0,0,0,134.71,176.23Z"></path><path d="M121.08,162.61a1.93,1.93,0,1,0,2.73,0A1.93,1.93,0,0,0,121.08,162.61Z"></path><path d="M107.46,176.23a1.93,1.93,0,1,0,2.72,0A1.92,1.92,0,0,0,107.46,176.23Z"></path><path d="M108.09,189.44a1.74,1.74,0,0,0-.63.42,1.92,1.92,0,0,0-.38,2.16c.76-.08,1.51-.18,2.25-.28l1.35-.17a1.89,1.89,0,0,0-.5-1.71A1.92,1.92,0,0,0,108.09,189.44Z"></path><path d="M149,124.88a2,2,0,0,0,.72.14,1.83,1.83,0,0,0,.73-.14,1.88,1.88,0,0,0,1.06-1.06,2,2,0,0,0-.42-2.09h0a2,2,0,0,0-2.09-.42,2,2,0,0,0-.64.42,1.87,1.87,0,0,0-.42.64,1.94,1.94,0,0,0,.42,2.09A1.87,1.87,0,0,0,149,124.88Z"></path><path d="M164.68,138.08a1.92,1.92,0,1,0-2.72,0A1.9,1.9,0,0,0,164.68,138.08Z"></path><path d="M136.07,138.65a1.9,1.9,0,0,0,1.36-.57,1.89,1.89,0,0,0,0-2.72,2,2,0,0,0-.63-.43,1.93,1.93,0,0,0-2.09,3.15A1.9,1.9,0,0,0,136.07,138.65Z"></path><path d="M148.33,149a1.93,1.93,0,1,0,2.73,0A1.94,1.94,0,0,0,148.33,149Z"></path><path d="M162,149a1.93,1.93,0,1,0,2.72,0A1.92,1.92,0,0,0,162,149Z"></path><path d="M148.33,135.36a1.93,1.93,0,1,0,2.73,0A1.93,1.93,0,0,0,148.33,135.36Z"></path><path d="M148.33,162.61a1.93,1.93,0,1,0,2.73,0A1.93,1.93,0,0,0,148.33,162.61Z"></path><path d="M134.71,149a1.93,1.93,0,1,0,2.72,0A1.92,1.92,0,0,0,134.71,149Z"></path><path d="M149,175.81a2,2,0,0,0-.64.42,1.91,1.91,0,0,0-.54,1.48l1.23-.79c.52-.33,1-.67,1.54-1A1.89,1.89,0,0,0,149,175.81Z"></path><path d="M164.68,110.83a1.92,1.92,0,1,0-2.72,0A1.92,1.92,0,0,0,164.68,110.83Z"></path><path d="M175.58,121.73a1.93,1.93,0,1,0,2.73,0A1.94,1.94,0,0,0,175.58,121.73Z"></path><path d="M188.72,123.5l.51-1.78h0A1.92,1.92,0,0,0,188.72,123.5Z"></path><path d="M175.58,108.11a1.93,1.93,0,1,0,2.73,0A1.93,1.93,0,0,0,175.58,108.11Z"></path><path d="M175.58,135.36a1.93,1.93,0,1,0,2.73,0A1.93,1.93,0,0,0,175.58,135.36Z"></path><path d="M162,121.73a1.93,1.93,0,1,0,2.72,0A1.92,1.92,0,0,0,162,121.73Z"></path><path d="M176.22,148.56a1.87,1.87,0,0,0-.64.42,1.89,1.89,0,0,0-.23,2.37c.35-.51.72-1,1.06-1.53s.57-.89.86-1.34A1.88,1.88,0,0,0,176.22,148.56Z"></path><path d="M191.93,94.48a1.93,1.93,0,1,0,0,2.73A1.93,1.93,0,0,0,191.93,94.48Z"></path><path d="M189.21,108.11a1.92,1.92,0,0,0,0,2.72,1.89,1.89,0,0,0,2.29.29c0-.21.06-.42.09-.63.12-.8.21-1.6.31-2.41A1.93,1.93,0,0,0,189.21,108.11Z"></path><path d="M164.68,162.61a2,2,0,0,0-.64-.43,1.93,1.93,0,0,0-2.08,3.15h0a1.91,1.91,0,0,0,.63.43c.12,0,.24,0,.37.07.75-.73,1.49-1.45,2.22-2.2a1.78,1.78,0,0,0-.07-.39A1.91,1.91,0,0,0,164.68,162.61Z"></path></svg>